<mxfile host="app.diagrams.net" agent="Mozilla/5.0 (Windows NT 10.0; Win64; x64) AppleWebKit/537.36 (KHTML, like Gecko) Chrome/141.0.0.0 Safari/537.36" version="28.2.8">
  <diagram id="VFpCUBPK8nx-iTkIFBFY" name="Seite-1">
    <mxGraphModel dx="1224" dy="1102" grid="1" gridSize="10" guides="1" tooltips="1" connect="1" arrows="1" fold="1" page="1" pageScale="1" pageWidth="1169" pageHeight="1654" background="light-dark(#FFFFFF,#0000FF)" math="0" shadow="0">
      <root>
        <mxCell id="0" />
        <mxCell id="1" parent="0" />
        <mxCell id="Zg7mXRpKknh-xwTEBLr--1" value="Kunde" style="swimlane;fontStyle=1;align=center;verticalAlign=top;childLayout=stackLayout;horizontal=1;startSize=26;horizontalStack=0;resizeParent=1;resizeParentMax=0;resizeLast=0;collapsible=1;marginBottom=0;whiteSpace=wrap;html=1;" vertex="1" parent="1">
          <mxGeometry x="50" y="310" width="180" height="90" as="geometry" />
        </mxCell>
        <mxCell id="Zg7mXRpKknh-xwTEBLr--2" value="- kundenID: int" style="text;strokeColor=none;fillColor=none;align=left;verticalAlign=top;spacingLeft=4;spacingRight=4;overflow=hidden;rotatable=0;points=[[0,0.5],[1,0.5]];portConstraint=eastwest;whiteSpace=wrap;html=1;" vertex="1" parent="Zg7mXRpKknh-xwTEBLr--1">
          <mxGeometry y="26" width="180" height="26" as="geometry" />
        </mxCell>
        <mxCell id="Zg7mXRpKknh-xwTEBLr--3" value="" style="line;strokeWidth=1;fillColor=none;align=left;verticalAlign=middle;spacingTop=-1;spacingLeft=3;spacingRight=3;rotatable=0;labelPosition=right;points=[];portConstraint=eastwest;strokeColor=inherit;" vertex="1" parent="Zg7mXRpKknh-xwTEBLr--1">
          <mxGeometry y="52" width="180" height="8" as="geometry" />
        </mxCell>
        <mxCell id="Zg7mXRpKknh-xwTEBLr--4" value="+ bestellungAufgeben(xx): bool" style="text;strokeColor=none;fillColor=none;align=left;verticalAlign=top;spacingLeft=4;spacingRight=4;overflow=hidden;rotatable=0;points=[[0,0.5],[1,0.5]];portConstraint=eastwest;whiteSpace=wrap;html=1;" vertex="1" parent="Zg7mXRpKknh-xwTEBLr--1">
          <mxGeometry y="60" width="180" height="30" as="geometry" />
        </mxCell>
        <mxCell id="Zg7mXRpKknh-xwTEBLr--5" value="Produkt" style="swimlane;fontStyle=1;align=center;verticalAlign=top;childLayout=stackLayout;horizontal=1;startSize=26;horizontalStack=0;resizeParent=1;resizeParentMax=0;resizeLast=0;collapsible=1;marginBottom=0;whiteSpace=wrap;html=1;" vertex="1" parent="1">
          <mxGeometry x="30" y="510" width="260" height="144" as="geometry" />
        </mxCell>
        <mxCell id="Zg7mXRpKknh-xwTEBLr--6" value="- produktID: int&lt;div&gt;+ produktName: string&lt;/div&gt;&lt;div&gt;+ produktBeschreibung: string&lt;/div&gt;&lt;div&gt;+ menge: int&lt;/div&gt;&lt;div&gt;+ produktPreis: float&lt;/div&gt;" style="text;strokeColor=none;fillColor=none;align=left;verticalAlign=top;spacingLeft=4;spacingRight=4;overflow=hidden;rotatable=0;points=[[0,0.5],[1,0.5]];portConstraint=eastwest;whiteSpace=wrap;html=1;" vertex="1" parent="Zg7mXRpKknh-xwTEBLr--5">
          <mxGeometry y="26" width="260" height="84" as="geometry" />
        </mxCell>
        <mxCell id="Zg7mXRpKknh-xwTEBLr--7" value="" style="line;strokeWidth=1;fillColor=none;align=left;verticalAlign=middle;spacingTop=-1;spacingLeft=3;spacingRight=3;rotatable=0;labelPosition=right;points=[];portConstraint=eastwest;strokeColor=inherit;" vertex="1" parent="Zg7mXRpKknh-xwTEBLr--5">
          <mxGeometry y="110" width="260" height="8" as="geometry" />
        </mxCell>
        <mxCell id="Zg7mXRpKknh-xwTEBLr--8" value="+preisBerechnen(menge: int, preis: float): float" style="text;strokeColor=none;fillColor=none;align=left;verticalAlign=top;spacingLeft=4;spacingRight=4;overflow=hidden;rotatable=0;points=[[0,0.5],[1,0.5]];portConstraint=eastwest;whiteSpace=wrap;html=1;" vertex="1" parent="Zg7mXRpKknh-xwTEBLr--5">
          <mxGeometry y="118" width="260" height="26" as="geometry" />
        </mxCell>
        <mxCell id="Zg7mXRpKknh-xwTEBLr--9" value="Bestellung" style="swimlane;fontStyle=1;align=center;verticalAlign=top;childLayout=stackLayout;horizontal=1;startSize=26;horizontalStack=0;resizeParent=1;resizeParentMax=0;resizeLast=0;collapsible=1;marginBottom=0;whiteSpace=wrap;html=1;" vertex="1" parent="1">
          <mxGeometry x="700" y="322" width="250" height="124" as="geometry" />
        </mxCell>
        <mxCell id="Zg7mXRpKknh-xwTEBLr--10" value="- bestellID: int&lt;div&gt;+ datum: date&lt;/div&gt;&lt;div&gt;+ gesamtpreis: float&lt;/div&gt;&lt;div&gt;+ status: string = &quot;Bestellung abgeschlossen&quot;&lt;/div&gt;" style="text;strokeColor=none;fillColor=none;align=left;verticalAlign=top;spacingLeft=4;spacingRight=4;overflow=hidden;rotatable=0;points=[[0,0.5],[1,0.5]];portConstraint=eastwest;whiteSpace=wrap;html=1;" vertex="1" parent="Zg7mXRpKknh-xwTEBLr--9">
          <mxGeometry y="26" width="250" height="64" as="geometry" />
        </mxCell>
        <mxCell id="Zg7mXRpKknh-xwTEBLr--11" value="" style="line;strokeWidth=1;fillColor=none;align=left;verticalAlign=middle;spacingTop=-1;spacingLeft=3;spacingRight=3;rotatable=0;labelPosition=right;points=[];portConstraint=eastwest;strokeColor=inherit;" vertex="1" parent="Zg7mXRpKknh-xwTEBLr--9">
          <mxGeometry y="90" width="250" height="8" as="geometry" />
        </mxCell>
        <mxCell id="Zg7mXRpKknh-xwTEBLr--12" value="+ bestellen: bool" style="text;strokeColor=none;fillColor=none;align=left;verticalAlign=top;spacingLeft=4;spacingRight=4;overflow=hidden;rotatable=0;points=[[0,0.5],[1,0.5]];portConstraint=eastwest;whiteSpace=wrap;html=1;" vertex="1" parent="Zg7mXRpKknh-xwTEBLr--9">
          <mxGeometry y="98" width="250" height="26" as="geometry" />
        </mxCell>
        <mxCell id="Zg7mXRpKknh-xwTEBLr--13" value="Warenkorb" style="swimlane;fontStyle=1;align=center;verticalAlign=top;childLayout=stackLayout;horizontal=1;startSize=26;horizontalStack=0;resizeParent=1;resizeParentMax=0;resizeLast=0;collapsible=1;marginBottom=0;whiteSpace=wrap;html=1;" vertex="1" parent="1">
          <mxGeometry x="400" y="500" width="210" height="150" as="geometry" />
        </mxCell>
        <mxCell id="Zg7mXRpKknh-xwTEBLr--14" value="- WarenkorbID: int&lt;div&gt;- menge: int&lt;/div&gt;&lt;div&gt;- gesamtpreis: double&lt;/div&gt;" style="text;strokeColor=none;fillColor=none;align=left;verticalAlign=top;spacingLeft=4;spacingRight=4;overflow=hidden;rotatable=0;points=[[0,0.5],[1,0.5]];portConstraint=eastwest;whiteSpace=wrap;html=1;" vertex="1" parent="Zg7mXRpKknh-xwTEBLr--13">
          <mxGeometry y="26" width="210" height="54" as="geometry" />
        </mxCell>
        <mxCell id="Zg7mXRpKknh-xwTEBLr--15" value="" style="line;strokeWidth=1;fillColor=none;align=left;verticalAlign=middle;spacingTop=-1;spacingLeft=3;spacingRight=3;rotatable=0;labelPosition=right;points=[];portConstraint=eastwest;strokeColor=inherit;" vertex="1" parent="Zg7mXRpKknh-xwTEBLr--13">
          <mxGeometry y="80" width="210" height="8" as="geometry" />
        </mxCell>
        <mxCell id="Zg7mXRpKknh-xwTEBLr--16" value="+ produktHinzufÃ¼gen(): void&lt;div&gt;+ produktEntfernen: void&lt;/div&gt;&lt;div&gt;+ berechneGesamtpreis: double&lt;/div&gt;" style="text;strokeColor=none;fillColor=none;align=left;verticalAlign=top;spacingLeft=4;spacingRight=4;overflow=hidden;rotatable=0;points=[[0,0.5],[1,0.5]];portConstraint=eastwest;whiteSpace=wrap;html=1;" vertex="1" parent="Zg7mXRpKknh-xwTEBLr--13">
          <mxGeometry y="88" width="210" height="62" as="geometry" />
        </mxCell>
        <mxCell id="Zg7mXRpKknh-xwTEBLr--17" value="BrownieBild" style="swimlane;fontStyle=1;align=center;verticalAlign=top;childLayout=stackLayout;horizontal=1;startSize=26;horizontalStack=0;resizeParent=1;resizeParentMax=0;resizeLast=0;collapsible=1;marginBottom=0;whiteSpace=wrap;html=1;" vertex="1" parent="1">
          <mxGeometry x="390" y="680" width="210" height="210" as="geometry" />
        </mxCell>
        <mxCell id="Zg7mXRpKknh-xwTEBLr--18" value="- bildID: int&lt;div&gt;+ bildDatei: Blob&lt;/div&gt;&lt;div&gt;+ vorschauDatei: Blob&lt;/div&gt;&lt;div&gt;+ status: string &quot;Bild hochgeladen&quot;&lt;/div&gt;" style="text;strokeColor=none;fillColor=none;align=left;verticalAlign=top;spacingLeft=4;spacingRight=4;overflow=hidden;rotatable=0;points=[[0,0.5],[1,0.5]];portConstraint=eastwest;whiteSpace=wrap;html=1;" vertex="1" parent="Zg7mXRpKknh-xwTEBLr--17">
          <mxGeometry y="26" width="210" height="104" as="geometry" />
        </mxCell>
        <mxCell id="Zg7mXRpKknh-xwTEBLr--19" value="" style="line;strokeWidth=1;fillColor=none;align=left;verticalAlign=middle;spacingTop=-1;spacingLeft=3;spacingRight=3;rotatable=0;labelPosition=right;points=[];portConstraint=eastwest;strokeColor=inherit;" vertex="1" parent="Zg7mXRpKknh-xwTEBLr--17">
          <mxGeometry y="130" width="210" height="8" as="geometry" />
        </mxCell>
        <mxCell id="Zg7mXRpKknh-xwTEBLr--20" value="+ bildHochladen(datei: Blob): bool&lt;div&gt;+ vorschauGenerieren(): Blob&lt;/div&gt;" style="text;strokeColor=none;fillColor=none;align=left;verticalAlign=top;spacingLeft=4;spacingRight=4;overflow=hidden;rotatable=0;points=[[0,0.5],[1,0.5]];portConstraint=eastwest;whiteSpace=wrap;html=1;" vertex="1" parent="Zg7mXRpKknh-xwTEBLr--17">
          <mxGeometry y="138" width="210" height="72" as="geometry" />
        </mxCell>
        <mxCell id="Zg7mXRpKknh-xwTEBLr--21" value="Visualisierungsservice" style="swimlane;fontStyle=1;align=center;verticalAlign=top;childLayout=stackLayout;horizontal=1;startSize=26;horizontalStack=0;resizeParent=1;resizeParentMax=0;resizeLast=0;collapsible=1;marginBottom=0;whiteSpace=wrap;html=1;" vertex="1" parent="1">
          <mxGeometry x="720" y="622" width="250" height="86" as="geometry" />
        </mxCell>
        <mxCell id="Zg7mXRpKknh-xwTEBLr--22" value="- algorithmusTyp: string = &quot;Standard&quot;" style="text;strokeColor=none;fillColor=none;align=left;verticalAlign=top;spacingLeft=4;spacingRight=4;overflow=hidden;rotatable=0;points=[[0,0.5],[1,0.5]];portConstraint=eastwest;whiteSpace=wrap;html=1;" vertex="1" parent="Zg7mXRpKknh-xwTEBLr--21">
          <mxGeometry y="26" width="250" height="26" as="geometry" />
        </mxCell>
        <mxCell id="Zg7mXRpKknh-xwTEBLr--23" value="" style="line;strokeWidth=1;fillColor=none;align=left;verticalAlign=middle;spacingTop=-1;spacingLeft=3;spacingRight=3;rotatable=0;labelPosition=right;points=[];portConstraint=eastwest;strokeColor=inherit;" vertex="1" parent="Zg7mXRpKknh-xwTEBLr--21">
          <mxGeometry y="52" width="250" height="8" as="geometry" />
        </mxCell>
        <mxCell id="Zg7mXRpKknh-xwTEBLr--24" value="+ generatePreview(bild: Browniebild): Blob" style="text;strokeColor=none;fillColor=none;align=left;verticalAlign=top;spacingLeft=4;spacingRight=4;overflow=hidden;rotatable=0;points=[[0,0.5],[1,0.5]];portConstraint=eastwest;whiteSpace=wrap;html=1;" vertex="1" parent="Zg7mXRpKknh-xwTEBLr--21">
          <mxGeometry y="60" width="250" height="26" as="geometry" />
        </mxCell>
        <mxCell id="Zg7mXRpKknh-xwTEBLr--25" value="" style="line;strokeWidth=1;fillColor=none;align=left;verticalAlign=middle;spacingTop=-1;spacingLeft=3;spacingRight=3;rotatable=0;labelPosition=right;points=[];portConstraint=eastwest;strokeColor=inherit;" vertex="1" parent="1">
          <mxGeometry x="230" y="330" width="470" height="10" as="geometry" />
        </mxCell>
        <mxCell id="Zg7mXRpKknh-xwTEBLr--26" value="1" style="text;html=1;whiteSpace=wrap;strokeColor=none;fillColor=none;align=center;verticalAlign=middle;rounded=0;" vertex="1" parent="1">
          <mxGeometry x="240" y="292" width="60" height="30" as="geometry" />
        </mxCell>
        <mxCell id="Zg7mXRpKknh-xwTEBLr--27" value="0..*" style="text;html=1;whiteSpace=wrap;strokeColor=none;fillColor=none;align=center;verticalAlign=middle;rounded=0;" vertex="1" parent="1">
          <mxGeometry x="640" y="292" width="60" height="30" as="geometry" />
        </mxCell>
        <mxCell id="Zg7mXRpKknh-xwTEBLr--28" value="" style="endArrow=none;html=1;rounded=0;entryX=-0.008;entryY=0.984;entryDx=0;entryDy=0;entryPerimeter=0;" edge="1" parent="1" target="Zg7mXRpKknh-xwTEBLr--10">
          <mxGeometry width="50" height="50" relative="1" as="geometry">
            <mxPoint x="610" y="500" as="sourcePoint" />
            <mxPoint x="660" y="450" as="targetPoint" />
          </mxGeometry>
        </mxCell>
        <mxCell id="Zg7mXRpKknh-xwTEBLr--29" value="1..*" style="text;html=1;whiteSpace=wrap;strokeColor=none;fillColor=none;align=center;verticalAlign=middle;rounded=0;" vertex="1" parent="1">
          <mxGeometry x="560" y="460" width="60" height="30" as="geometry" />
        </mxCell>
        <mxCell id="Zg7mXRpKknh-xwTEBLr--30" value="1" style="text;html=1;whiteSpace=wrap;strokeColor=none;fillColor=none;align=center;verticalAlign=middle;rounded=0;" vertex="1" parent="1">
          <mxGeometry x="640" y="380" width="60" height="30" as="geometry" />
        </mxCell>
        <mxCell id="Zg7mXRpKknh-xwTEBLr--31" value="" style="line;strokeWidth=1;fillColor=none;align=left;verticalAlign=middle;spacingTop=-1;spacingLeft=3;spacingRight=3;rotatable=0;labelPosition=right;points=[];portConstraint=eastwest;strokeColor=inherit;" vertex="1" parent="1">
          <mxGeometry x="290" y="570" width="110" height="8" as="geometry" />
        </mxCell>
        <mxCell id="Zg7mXRpKknh-xwTEBLr--32" value="1" style="text;html=1;whiteSpace=wrap;strokeColor=none;fillColor=none;align=center;verticalAlign=middle;rounded=0;" vertex="1" parent="1">
          <mxGeometry x="280" y="542" width="60" height="30" as="geometry" />
        </mxCell>
        <mxCell id="Zg7mXRpKknh-xwTEBLr--33" value="0..*" style="text;html=1;whiteSpace=wrap;strokeColor=none;fillColor=none;align=center;verticalAlign=middle;rounded=0;" vertex="1" parent="1">
          <mxGeometry x="350" y="542" width="60" height="30" as="geometry" />
        </mxCell>
        <mxCell id="Zg7mXRpKknh-xwTEBLr--34" value="" style="endArrow=none;html=1;rounded=0;entryX=0.4;entryY=1.115;entryDx=0;entryDy=0;entryPerimeter=0;exitX=0.328;exitY=-0.023;exitDx=0;exitDy=0;exitPerimeter=0;" edge="1" parent="1" source="Zg7mXRpKknh-xwTEBLr--21" target="Zg7mXRpKknh-xwTEBLr--12">
          <mxGeometry width="50" height="50" relative="1" as="geometry">
            <mxPoint x="800" y="610" as="sourcePoint" />
            <mxPoint x="850" y="510" as="targetPoint" />
          </mxGeometry>
        </mxCell>
        <mxCell id="Zg7mXRpKknh-xwTEBLr--35" value="1" style="text;html=1;whiteSpace=wrap;strokeColor=none;fillColor=none;align=center;verticalAlign=middle;rounded=0;" vertex="1" parent="1">
          <mxGeometry x="800" y="440" width="60" height="30" as="geometry" />
        </mxCell>
        <mxCell id="Zg7mXRpKknh-xwTEBLr--36" value="1" style="text;html=1;whiteSpace=wrap;strokeColor=none;fillColor=none;align=center;verticalAlign=middle;rounded=0;" vertex="1" parent="1">
          <mxGeometry x="800" y="580" width="60" height="30" as="geometry" />
        </mxCell>
        <mxCell id="Zg7mXRpKknh-xwTEBLr--37" value="" style="endArrow=none;html=1;rounded=0;entryX=0.016;entryY=-0.115;entryDx=0;entryDy=0;entryPerimeter=0;" edge="1" parent="1" target="Zg7mXRpKknh-xwTEBLr--24">
          <mxGeometry width="50" height="50" relative="1" as="geometry">
            <mxPoint x="600" y="740" as="sourcePoint" />
            <mxPoint x="650" y="690" as="targetPoint" />
          </mxGeometry>
        </mxCell>
        <mxCell id="Zg7mXRpKknh-xwTEBLr--38" value="1/1..*" style="text;html=1;whiteSpace=wrap;strokeColor=none;fillColor=none;align=center;verticalAlign=middle;rounded=0;" vertex="1" parent="1">
          <mxGeometry x="590" y="730" width="60" height="30" as="geometry" />
        </mxCell>
        <mxCell id="Zg7mXRpKknh-xwTEBLr--39" value="1" style="text;html=1;whiteSpace=wrap;strokeColor=none;fillColor=none;align=center;verticalAlign=middle;rounded=0;" vertex="1" parent="1">
          <mxGeometry x="700" y="710" width="60" height="30" as="geometry" />
        </mxCell>
        <mxCell id="Zg7mXRpKknh-xwTEBLr--41" value="" style="endArrow=none;html=1;rounded=0;entryX=1;entryY=1.067;entryDx=0;entryDy=0;entryPerimeter=0;exitX=0;exitY=0;exitDx=0;exitDy=0;" edge="1" parent="1" source="Zg7mXRpKknh-xwTEBLr--13" target="Zg7mXRpKknh-xwTEBLr--4">
          <mxGeometry width="50" height="50" relative="1" as="geometry">
            <mxPoint x="560" y="590" as="sourcePoint" />
            <mxPoint x="610" y="540" as="targetPoint" />
          </mxGeometry>
        </mxCell>
        <mxCell id="Zg7mXRpKknh-xwTEBLr--42" value="1" style="text;html=1;whiteSpace=wrap;strokeColor=none;fillColor=none;align=center;verticalAlign=middle;rounded=0;" vertex="1" parent="1">
          <mxGeometry x="250" y="380" width="60" height="30" as="geometry" />
        </mxCell>
        <mxCell id="Zg7mXRpKknh-xwTEBLr--43" value="1" style="text;html=1;whiteSpace=wrap;strokeColor=none;fillColor=none;align=center;verticalAlign=middle;rounded=0;" vertex="1" parent="1">
          <mxGeometry x="390" y="470" width="60" height="30" as="geometry" />
        </mxCell>
      </root>
    </mxGraphModel>
  </diagram>
</mxfile>
